<svg width="96" height="108" xmlns="http://www.w3.org/2000/svg" xmlns:xlink="http://www.w3.org/1999/xlink"><defs><path id="a" d="M.245.203h70.512v90.146H.245z"/><path id="c" d="M.084.048h14.498v14.167H.084z"/></defs><g fill="none" fill-rule="evenodd"><path d="M39.906 101.77c.82.697 1.362 1.165 1.767 1.515.853.74 1.052.912 2.036 1.652.94-.322 1.892-.64 2.858-.963l1.356-.451c1.38-.46 2.76-.919 4.138-1.387l3.33-2.267.03.192a73.287 73.287 0 0 1 4.598-3.36 21.965 21.965 0 0 0 1.59-3.644c.088-.27.219-.59.4-1.032 1.603-3.91 2.165-6.597 1.67-7.984-.506-1.425.174-2.628.598-3.317-.277-.564-.532-.91-.532-.91l-2.093-2.754 3.214-1.348c.04-.017 4.37-1.873 7.721-5.291.739-.753 1.711-1.233 2.791-1.39.697-1 1.668-2.487 2.282-3.814.324-1.215.197-1.953.196-1.962l-.273-1.22.8-1.025c.752-.918 1.558-2.29 1.862-3.319-1.072-.643-2.536-.954-3.387-1.136-.29-.062-.532-.115-.714-.162-1.619-.421-4.08-1.543-6.5-2.693l-2.232-1.06.852-2.298c.314-.848.492-1.526.59-1.98a13.118 13.118 0 0 0-1.078-1.89l-.036-.053-.185-.335-.025-.058c-.479-1.106-.863-2.679-1.086-3.718-.524-.485-1.426-1.099-2.081-1.46l-1.467-.808.068-1.659c.028-.668.076-1.3.119-1.857.164-2.136.308-4.016-.575-7.801-.817.736-1.632 1.826-2.15 2.52-.695.928-1.153 1.542-1.834 1.966a19.535 19.535 0 0 0-2.166 1.614l-1.115.976-1.437-.403-1.239-.352c-1.893-.54-2.757-.787-3.666-.787-.448 0-.97.057-1.745.192l-2.317.401-.743-2.205c-2.357-6.99-5.034-10.803-6.94-11.834-2.004 3.438-3.007 6.22-4.258 10.477l-.089.304-.158.276c-.24.419-.462.795-.668 1.147-1.573 2.68-2.154 3.67-4.09 11.233l-.192.75-.565.536c-.042.04-4.528 4.345-6.692 8.625-.706 1.395-1.529 3.1-2.448 5.074.04 3.168-.576 6.201-1.173 9.138-.228 1.124-.463 2.28-.65 3.394-.379 2.276-.642 4.772-.827 7.835 3.92 9.462 7.706 13.957 20.122 23.507.074-.198.153-.377.237-.536l1.589-3.024 2.612 2.223" fill="#BBA47E"/><g transform="translate(12.343 17.623)"><mask id="b" fill="#fff"><use xlink:href="#a"/></mask><path d="M43.996 12.165l-.004.003.004-.003zm-18.63 71.892l1.307 1.111c.835.71 1.381 1.183 1.787 1.533.994.86 1.112.962 2.665 2.123 1.16-.402 2.336-.795 3.536-1.196l1.184-.394c1.499-.499 2.998-.997 4.493-1.506l1.696-1.155.062.39c1.945-1.587 4.205-3.363 6.616-4.949a23.426 23.426 0 0 0 1.85-4.165c.074-.221.197-.523.369-.941.714-1.741 2.61-6.367 1.692-8.94-.316-.886.175-1.68.534-2.26.092-.148.234-.378.301-.524-.429-1.09-.955-1.79-.96-1.797l-1.051-1.382 1.609-.675c.045-.019 4.588-1.943 8.168-5.594.754-.769 1.74-1.028 2.562-1.035.7-.974 2.042-2.932 2.82-4.65.464-1.655.248-2.668.246-2.678l-.143-.637.411-.526c.889-1.085 2.195-3.22 2.27-4.73-1.323-1.172-3.42-1.618-4.59-1.868a16.595 16.595 0 0 1-.652-.147c-1.506-.392-3.896-1.482-6.256-2.603l-1.116-.53.426-1.15c.458-1.234.653-2.156.728-2.595a13.917 13.917 0 0 0-1.366-2.492l-.122-.223c-.515-1.187-.93-3.08-1.085-3.845-.634-.717-1.935-1.573-2.673-1.98l-.734-.405.034-.83c.027-.632.072-1.223.117-1.81.187-2.447.365-4.768-1.053-9.963-1.599.391-3.148 2.464-4.131 3.78-.624.834-1 1.337-1.464 1.627-1.212.756-2.329 1.731-2.34 1.74l-.56.49-.718-.2a298.92 298.92 0 0 1-1.232-.35c-3.018-.863-3.646-1.042-6.026-.63l-1.158.202-.372-1.103c-2.625-7.783-5.959-12.65-8.853-13.02-2.446 3.988-3.57 7.026-4.948 11.714l-.045.151-.08.138c-.245.428-.47.81-.68 1.168-1.624 2.767-2.231 3.802-4.214 11.549l-.096.374-.282.268c-.047.045-4.672 4.456-6.968 8.995a182.704 182.704 0 0 0-2.598 5.395c.084 3.133-.539 6.194-1.14 9.158a99.963 99.963 0 0 0-.658 3.437c-.4 2.395-.674 5.032-.861 8.28 4.184 10.203 8.184 14.879 22.333 25.622.153-.975.368-1.784.616-2.255l.794-1.512z" fill="#BBA47E" mask="url(#b)"/><path d="M70.73 38.9c-1.845-2.039-5.2-2.47-6.235-2.74-1.448-.376-4.004-1.56-6.012-2.514.729-1.965.847-3.21.847-3.21s-.453-1.363-1.634-3.095c-.59-1.363-1.063-3.892-1.063-3.892-.926-1.285-3.286-2.581-3.286-2.581.149-3.533.898-5.764-1.27-13.203-3.64-.567-6.405 5.05-7.352 5.64a22.412 22.412 0 0 0-2.517 1.873c-4.14-1.162-4.85-1.532-7.867-1.01C31.578 5.975 27.651-.206 23.433.225c-2.909 4.6-4.121 8.003-5.497 12.688-2.185 3.801-2.747 4.13-5.031 13.052 0 0-4.81 4.553-7.245 9.365-.863 1.708-1.813 3.7-2.751 5.726.182 4.262-1.068 8.44-1.77 12.648-.482 2.89-.733 5.804-.894 8.725 4.443 10.927 8.59 15.755 24.847 27.949.062-1.971.398-3.63.691-4.187 3.152 2.682 2.17 1.956 5.105 4.148 1.395-.492 2.8-.963 4.208-1.432 1.955-.651 3.912-1.298 5.863-1.963l.061-.043.004.021.143-.048c.441-.151.88-.313 1.319-.478 2.336-1.92 4.715-3.79 7.253-5.435a24.846 24.846 0 0 0 2.121-4.693c.375-1.14 3.34-7.133 2.05-10.747-.219-.615 1.21-1.777.896-2.625-.524-1.421-1.22-2.322-1.22-2.322s4.786-1.99 8.617-5.898c.73-.744 1.829-.672 2.217-.543 0 0 2.326-3.039 3.472-5.623.623-2.138.287-3.448.287-3.448s2.887-3.509 2.55-6.16" fill="#0B0B09" mask="url(#b)"/></g><path d="M65.135 84.573c1.038 4.302-1.88 9.063-5.317 12.68.078-1.143.04-2.122-.126-2.919-2.793 3.222-8.833 7.21-12.766 8.517-5.52-3.418-7.705-4.5-13.523-9.787-.28 1.21-.414 2.47-.425 3.773-11.614-10.879-11.535-12.876-13.752-18.98 3.674 4.964 6.65 7.803 11.578 10.848a8.416 8.416 0 0 1 .442-2.32c4.01 3.026 7.288 4.48 11.015 6.22-4.366-4.815-7.61-8.866-11.782-14.449-.278.726-.425 1.5-.47 2.586-1.412-1.23-2.558-2.948-3.448-4.986a7.532 7.532 0 0 0-1.234 1.761c-2.152-4.591-2.216-5.924.754-10.3.483 2.305 1.245 3.842 2.262 4.676.134-.432.314-.82.549-1.152 1.785 2.192 4.697 4.998 6.822 5.922 1.156.502 4.992.397 6.204-.433-5.167-2.87-7.056-3.893-10.965-12.572 1.99.828 3.692 1.344 5.078 1.52-2.074-1.721-3.81-3.68-5.079-5.967 0 0 4.274-.745 5.367-1.92.27-.29-.338-1.068-.484-1.332 2.416-.964 4.682-2.142 5.842-3.187.426-.384 1.9-.589 2.796-.457 1.45.992 1.99 2.752 3.256 3.601.767.515 2.47.378 3.444.08 1.537-.469 2.98-1.47 2.98-1.47-1.935-.015-3.484-.583-4.601-1.476-1.555-1.243-2.89-3.04-4.098-3.81.472-.678 1.31-1.185 1.31-1.185s-1.313-.42-1.996-1.104c2.544-1.611 2.97-3.36 3.817-3.838.83-.469 2.064-.228 2.064-.228 0-.813-.488-1.458-.488-1.458 2.164-5.74 3.991-2.773 5.31-4.046 3.547 1.928 5.34 3.938 7.09 8.486-.47-4.24-1.185-5.813-2.39-7.997 2.68 1.988 3.53 3.315 4.592 8.189.266-3.972 1.08-5.118 1.08-5.118.875.363 1.732 1.107 1.796 1.523.175 1.138.423 2.905.423 2.905 1.186 1.895 1.548 2.742 1.583 2.93-.15.444-.33 1.148-.596 1.139-.533-.02-.877-.888-.877-.888-.468.538-.574 1.207-.924 1.227-.88.048-1.54-.874-1.54-.874.316 1.04.591 2.017 1.652 2.609 1.061.592 4.573 2.537 7.328 3.497a6.02 6.02 0 0 0-1.37.581c-.193 1.02-.352 2.077-.289 3.012.024.355 2.064 1.683 2.88 4.315.107.352.862.949 1.294 1.139.576-.167 1.182-.614 1.182-.614 0 1.071-.222 1.964-.222 1.964s-.677 1.756-1.893 2.669c-.427-.567-.564-.863-.867-1.108-.828-.017-6.859 3.32-13.104 1.696-3.813-.992-7.872-3.45-10.61-1.637 3.97.374 8.15 3.412 10.75 3.852 4.226.715 5.42-.147 7.98-.38 1.336-.121 2.043.275 1.964.608-.21.883-5.819 4.822-10.676 3.771-1.986-1.843-6.234-3.008-9.176-2.951-2.133.15-4.508 1.74-4.508 1.74 3.469.3 4.84.995 7.671 4.113-1.244.002-2.147.198-3.12.92 4.38 2.852 3.628 8.845 1.887 14.345 2.248-.755 5.441-3.053 6.648-4.517.126.631.18 1.503.127 2.217.667-.611 2.677-2.9 3.899-6.171" fill="#FFFFFE"/><path d="M63.08 48.586c-.023.548-.247 1.235-.818 2.07 0 0 .348 2.086-.968 4.222-1.565-2.627-3.43-3.649-3.43-3.649-1.326.53-2.89.692-3.868.475-.977-.219-3.639-3.27-4.97-3.565 1.641-1.466 3.74-1.944 4.875-1.985 0-.449-.378-1.497-.378-1.497 2.712.343 4.418 3.544 5.883 4.06 1.374.483 3.674-.131 3.674-.131" fill="#0B0B09"/><path d="M56.859 49.566l-2.522.22s-.719-.383-1.186-1.226c.727-.632 1.868-.536 1.962-.535.727.57 1.746 1.54 1.746 1.54M44.842 35.913c-.975-10.042-5.896-15.14-7.66-15.19-4.387 6.306-5.482 14.295-4.848 19.934-1.115-.622-2.424-1.917-2.424-1.917.437 2.205.34 5.272.34 5.272-4.218 2.683-6.351 7.092-7.223 9.392 2.424-2.923 6.253-5.654 9.744-6.421.678-.862.582-2.3.582-2.3 1.308.048 1.842-.671 1.842-.671-2.86-8.099.726-16.964 2.18-18.497 2.425.383 3.927 3.019 3.734 5.127-.825-1.006-2.327-.67-2.327-.67.727 2.49-.34 5.079-.97 7.044.097.958.97 2.06.97 2.06-1.261 0-1.745 1.294-1.745 1.294 1.163.048 1.696.527 1.939 1.102 2.811-1.917 4.169-4.552 4.314-5.607.866.382 1.552.048 1.552.048M58.442 34.765c.763-3.358 2.946-7.469 4.887-7.298 1.04 3.084 1.265 5.081.656 9.065-.608-4.623-1.618-4.632-1.238-6.61-1.936.989-2.052 1.689-2.052 4.158.485-.788 1.352-.96 1.352-.96-.416 1.953.416 3.94.416 3.94-1.733-1.302-4.02-2.295-4.02-2.295M79.883 59.636s1.623-1.804 1.317-3.215c-1.59-1.45-4.274-.365-5.668.56.79.36 1.895.473 1.895.473 2.118-.357 2.66.378 2.66.378.089.802-.204 1.804-.204 1.804" fill="#FFFFFE"/><path d="M0 7.539c.534-.172 1.069-.34 1.605-.506 1.051 2.676 2.105 5.363 3.162 8.061V6.091c.57-.163 1.142-.323 1.713-.48v13.505c-.539.147-1.078.299-1.616.452a6543.187 6543.187 0 0 0-3.163-8.161v9.1c-.568.176-1.135.355-1.701.536V7.54M12.547 15.978l.649-.814V6.2l-.649-.517c-.439.102-.877.205-1.315.31l-.647.823v8.964l.647.509c.438-.106.877-.21 1.315-.311zm-3.9 1.015V6.58c.515-.648 1.03-1.294 1.546-1.938 1.13-.28 2.262-.547 3.396-.801.518.399 1.036.8 1.555 1.206v10.412c-.519.626-1.037 1.255-1.555 1.887-1.134.254-2.266.52-3.396.801-.516-.388-1.031-.773-1.546-1.154zM21.291 8.54c.224-.262.45-.521.674-.78V4.412l-.674-.551c-.667.115-1.334.234-2 .357v4.678c.666-.124 1.333-.243 2-.357zm-3.957-5.49c1.672-.333 3.349-.638 5.029-.915.522.43 1.044.861 1.567 1.296V8.11c-.443.505-.887 1.013-1.33 1.522l1.43 5.743c-.663.102-1.324.208-1.985.319l-1.329-5.508c-.475.084-.95.17-1.425.258v5.735c-.653.121-1.305.246-1.957.376V3.049zM27.61 3.083c-.79.103-1.58.212-2.368.327V1.688c2.227-.325 4.46-.602 6.695-.83V2.58c-.785.08-1.57.167-2.354.259V14.62c-.658.077-1.316.159-1.973.245V3.083" fill="#0A0B09"/><g transform="translate(33.371)"><mask id="d" fill="#fff"><use xlink:href="#c"/></mask><path d="M.084.71C.744.65 1.403.593 2.064.54v5.911c.88-.07 1.76-.132 2.64-.187V.354C5.365.311 6.026.273 6.687.241v13.504c-.661.034-1.322.07-1.983.112V8.163c-.88.054-1.76.117-2.64.187v5.695c-.661.053-1.32.11-1.98.17V.71M9.01.144C10.853.08 12.698.048 14.542.048v1.684c-1.182 0-2.365.011-3.548.038V5.9a155.63 155.63 0 0 1 3.247-.039v1.703c-1.082.002-2.164.015-3.247.038v4.306c1.196-.027 2.392-.04 3.588-.038v1.683a156.94 156.94 0 0 0-5.572.095V.144" fill="#0A0B09" mask="url(#d)"/></g><path d="M51.642 8.452c.688.016 1.376.038 2.064.063l-1.022-7.139-1.042 7.076zM51.301.086c.949.022 1.898.05 2.846.09.755 4.532 1.51 9.069 2.264 13.611-.648-.035-1.296-.066-1.943-.094l-.521-3.525c-.848-.033-1.697-.058-2.546-.078l-.5 3.493c-.622-.013-1.243-.02-1.865-.026L51.301.087zM57.492 12.304v-2.251c.66.04 1.32.086 1.98.135v1.527l.661.716c.4.031.8.064 1.2.099l.679-.605v-3.19l-.52-.556a161.98 161.98 0 0 0-2.6-.206c-.446-.468-.893-.935-1.34-1.4V1.896c.52-.483 1.04-.964 1.56-1.442 1.087.079 2.174.169 3.26.27.526.564 1.052 1.131 1.578 1.7v2.252c-.659-.07-1.319-.133-1.978-.192V2.957l-.68-.725c-.367-.032-.733-.063-1.1-.091l-.66.615v3.053l.521.548c.86.067 1.72.142 2.578.223.453.487.906.975 1.358 1.466v4.795c-.525.461-1.051.925-1.578 1.391-1.119-.105-2.238-.197-3.359-.277-.52-.553-1.04-1.103-1.56-1.65M67.52 3.011c-.79-.1-1.582-.194-2.373-.282V1.007c2.234.248 4.464.545 6.69.89v1.722a152.7 152.7 0 0 0-2.346-.345v11.782c-.657-.091-1.314-.18-1.971-.262V3.01M73.345 2.138c1.825.302 3.646.636 5.463 1.002v1.683a156.953 156.953 0 0 0-3.5-.665v4.13c1.07.19 2.137.393 3.204.606v1.702a157.383 157.383 0 0 0-3.205-.605v4.306c1.182.21 2.362.435 3.54.673v1.683c-1.829-.37-3.663-.707-5.502-1.01V2.138M84.632 10.655l.667-.503V6.806l-.667-.828c-.66-.16-1.321-.315-1.983-.466v4.677c.662.151 1.323.307 1.983.466zM80.7 3.535c1.669.357 3.332.743 4.99 1.156.516.644 1.031 1.29 1.546 1.94v4.677l-1.31.977c.47 2.107.939 4.217 1.408 6.33-.652-.17-1.304-.335-1.958-.497-.437-2.02-.875-4.038-1.313-6.053-.47-.112-.942-.222-1.414-.33v5.735c-.649-.148-1.298-.292-1.949-.431V3.534zM89.207 5.611c.54.148 1.079.299 1.616.452 1.057 3.303 2.111 6.618 3.163 9.943V7.003c.568.176 1.135.354 1.701.536v13.504c-.534-.171-1.068-.34-1.604-.505a3315.334 3315.334 0 0 0-3.162-10.043v9.1c-.57-.163-1.142-.323-1.714-.479V5.611" fill="#0A0B09"/></g></svg>